#!OML:ASF E:\emotionWalksFemale\Project 1\Capture day 1\Session 1\Female1.ASF
:FULLY-SPECIFIED
:DEGREES
2779
root 9.09546 15.2913 26.4588 -4.01188 4.70079 -3.66385
lowerback 7.36086 2.04964 4.75767
upperback -6.05465 3.35611 0.0867309
thorax -10.3635 1.27656 -3.11116
lowerneck 0.130974 -5.09128 -7.20599
upperneck 1.58462 -6.87952 6.3271
head 0.994551 -3.44865 3.21711
rclavicle -4.19436e-014 -1.47101e-014
rhumerus -33.5879 13.3959 -93.8456
rradius 41.5263
rwrist 11.8565
rhand -2.68327 -47.04
rfingers 7.12502
rthumb 23.0179 -75.6855
lclavicle -4.19436e-014 -1.47101e-014
lhumerus -47.2863 12.4889 76.3051
lradius 39.4451
lwrist -9.57803
lhand -7.02751 -33.0873
lfingers 7.12502
lthumb 18.8444 -3.98006
rfemur 16.2173 16.4734 40.4112
rtibia 6.2816e-014
rfoot -12.2969 -32.4146
rtoes 23.4081
lfemur -26.8019 -9.45758 -16.2418
ltibia 38.7584
lfoot -19.2649 10.8728
ltoes -17.009
2780
root 9.09719 15.3084 26.5328 -3.9954 4.38284 -3.74363
lowerback 7.2933 2.01955 4.89116
upperback -6.04689 3.33004 0.117431
thorax -10.3123 1.25739 -3.14505
lowerneck -0.15005 -4.99567 -6.92717
upperneck 1.8623 -6.73921 6.06553
head 1.10027 -3.37486 3.06834
rclavicle 3.52843e-015 -2.3059e-014
rhumerus -33.8318 13.526 -94.3954
rradius 41.5628
rwrist 11.9747
rhand -1.84341 -46.9436
rfingers 7.12502
rthumb 23.8236 -75.4863
lclavicle 3.52843e-015 -2.3059e-014
lhumerus -47.6987 12.486 76.3459
lradius 39.9817
lwrist -10.5389
lhand -6.06483 -33.3198
lfingers 7.12502
lthumb 19.77 -4.3052
rfemur 16.4521 16.2703 40.4836
rtibia 3.49861e-014
rfoot -12.1137 -31.9969
rtoes 23.4551
lfemur -27.0335 -9.87615 -16.1341
ltibia 37.6859
lfoot -19.4836 11.5293
ltoes -17.3719
2781
root 9.10045 15.3169 26.609 -3.93336 3.97363 -3.66705
lowerback 7.17497 2.06101 4.86004
upperback -6.037 3.37332 0.108082
thorax -10.2271 1.28338 -3.13771
lowerneck 0.0685755 -4.81435 -6.96162
upperneck 1.61871 -6.50584 6.28078
head 0.977161 -3.25969 3.16213
rclavicle -2.88238e-015 1.66979e-014
rhumerus -33.9902 13.5242 -94.8057
rradius 41.4205
rwrist 12.1595
rhand -1.22852 -46.3172
rfingers 7.12502
rthumb 24.4132 -74.7818
lclavicle -2.88238e-015 1.66979e-014
lhumerus -47.2884 12.1378 76.5675
lradius 39.0899
lwrist -11.4405
lhand -5.78824 -33.9155
lfingers 7.12502
lthumb 20.0359 -4.92847
rfemur 16.7378 16.174 40.4072
rtibia -3.18055e-015
rfoot -12.0741 -31.5707
rtoes 23.3872
lfemur -27.1625 -10.2914 -16.219
ltibia 36.6389
lfoot -19.6962 12.4306
ltoes -18.6445
2782
root 9.103 15.312 26.6793 -3.86939 3.69026 -3.66385
lowerback 7.20153 2.01327 4.78814
upperback -6.11021 3.30697 0.131097
thorax -10.3355 1.25267 -3.06655
lowerneck 0.0439744 -4.67174 -6.64712
upperneck 1.66454 -6.3155 6.23013
head 0.968231 -3.16248 3.08908
rclavicle 3.68746e-014 1.5704e-014
rhumerus -34.2206 13.5472 -95.2702
rradius 41.1358
rwrist 12.3233
rhand -1.076 -45.7178
rfingers 7.12502
rthumb 24.5594 -74.1626
lclavicle 3.68746e-014 1.5704e-014
lhumerus -47.2966 11.9748 76.518
lradius 38.6354
lwrist -12.3101
lhand -5.45282 -34.6501
lfingers 7.12502
lthumb 20.3583 -5.69722
rfemur 16.9847 15.9552 40.3904
rtibia -1.27222e-014
rfoot -12.3186 -31.175
rtoes 23.1191
lfemur -27.2523 -10.6334 -16.3077
ltibia 35.5354
lfoot -19.1868 13.8486
ltoes -23.2061
2783
root 9.10555 15.3018 26.7477 -3.73287 3.44524 -3.73193
lowerback 7.19932 1.81546 4.5741
upperback -6.28523 3.03213 0.243941
thorax -10.5691 1.13082 -2.78894
lowerneck 0.374617 -4.34733 -6.29078
upperneck 1.63049 -5.89893 6.20796
head 0.856172 -2.95725 3.03192
rclavicle -6.90777e-015 -1.78906e-015
rhumerus -34.6147 13.7626 -95.9157
rradius 40.8682
rwrist 12.5411
rhand -0.789903 -45.6438
rfingers 7.12502
rthumb 24.8336 -74.0511
lclavicle -6.90777e-015 -1.78906e-015
lhumerus -47.9015 12.0003 76.2096
lradius 38.8496
lwrist -12.752
lhand -4.662 -34.8373
lfingers 7.12502
lthumb 21.1181 -5.9674
rfemur 17.1001 15.7226 40.4195
rtibia 3.33958e-014
rfoot -12.3282 -30.7608
rtoes 22.839
lfemur -27.3885 -10.9746 -16.2909
ltibia 34.404
lfoot -18.3871 15.2965
ltoes -28.2557
2784
root 9.10953 15.3005 26.8181 -3.52835 3.03543 -3.69499
lowerback 7.09617 1.99541 4.62472
upperback -6.26955 3.27612 0.267953
thorax -10.469 1.24946 -2.82314
lowerneck 0.0230413 -4.36217 -6.65848
upperneck 1.69065 -5.90608 6.48856
head 0.961749 -2.95611 3.18753
rclavicle -1.68967e-014 -9.93923e-016
rhumerus -34.5855 13.2507 -95.7505
rradius 40.6732
rwrist 12.7704
rhand -0.193278 -45.7896
rfingers 7.12502
rthumb 25.4052 -74.1168
lclavicle -1.68967e-014 -9.93923e-016
lhumerus -47.7179 11.543 76.6441
lradius 38.7682
lwrist -13.1316
lhand -3.91435 -34.5864
lfingers 7.12502
lthumb 21.8362 -5.7984
rfemur 17.1429 15.6767 40.3367
rtibia -6.36111e-014
rfoot -11.6728 -30.4419
rtoes 21.7824
lfemur -27.5811 -11.6844 -16.1966
ltibia 33.3214
lfoot -18.1902 16.5656
ltoes -28.5891
2785
root 9.11517 15.301 26.8843 -3.34657 2.52137 -3.74532
lowerback 6.99122 2.12683 4.87447
upperback -6.30855 3.47196 0.205738
thorax -10.4179 1.32378 -3.05417
lowerneck 0.029333 -4.34333 -6.43912
upperneck 1.63468 -5.87742 6.36148
head 0.927853 -2.94108 3.10407
rclavicle 1.75924e-014 2.50469e-014
rhumerus -34.7496 13.0491 -95.9552
rradius 40.3969
rwrist 12.8644
rhand 0.620377 -45.4557
rfingers 7.12502
rthumb 26.1845 -73.6697
lclavicle 1.75924e-014 2.50469e-014
lhumerus -47.8048 11.279 76.6308
lradius 38.7537
lwrist -13.4248
lhand -3.35243 -34.4431
lfingers 7.12502
lthumb 22.3757 -5.71896
rfemur 17.1885 15.716 40.3669
rtibia 9.54166e-015
rfoot -10.8762 -30.2766
rtoes 19.9312
lfemur -27.758 -12.2772 -15.9955
ltibia 32.317
lfoot -18.2812 17.6331
ltoes -27.2983
2786
root 9.11686 15.2944 26.9449 -3.14665 2.01786 -3.93537
lowerback 6.99041 2.17765 5.04425
upperback -6.41591 3.57016 0.261509
thorax -10.5251 1.3555 -3.10671
lowerneck 0.0477076 -4.25864 -6.14528
upperneck 1.6945 -5.76475 6.17354
head 0.918514 -2.88428 2.98724
rclavicle -3.40419e-014 -2.78299e-015
rhumerus -34.9519 13.255 -96.2499
rradius 39.9448
rwrist 12.867
rhand 1.58265 -45.0318
rfingers 7.12502
rthumb 27.1054 -73.1058
lclavicle -3.40419e-014 -2.78299e-015
lhumerus -48.3892 11.2695 76.4642
lradius 39.4075
lwrist -13.5599
lhand -2.90907 -34.205
lfingers 7.12502
lthumb 22.8012 -5.53264
rfemur 17.2113 15.7414 40.5488
rtibia 9.54166e-015
rfoot -10.5419 -30.0143
rtoes 18.5926
lfemur -27.9349 -12.4786 -15.7164
ltibia 31.4451
lfoot -18.5073 18.358
ltoes -27.0834
2787
root 9.11823 15.294 27.0113 -2.94906 1.58599 -4.06682
lowerback 6.90732 2.21996 5.09004
upperback -6.46118 3.63566 0.331612
thorax -10.5226 1.38635 -3.06348
lowerneck -0.0583235 -4.14828 -6.05232
upperneck 1.73541 -5.61527 6.25696
head 0.940016 -2.80673 2.99836
rclavicle 3.12092e-014 -1.98785e-016
rhumerus -34.9586 13.3557 -96.3702
rradius 39.4302
rwrist 12.8449
rhand 3.08947 -45.3591
rfingers 7.12502
rthumb 28.546 -73.2001
lclavicle 3.12092e-014 -1.98785e-016
lhumerus -48.0936 11.3446 76.2848
lradius 38.7955
lwrist -13.6593
lhand -2.84399 -34.0517
lfingers 7.12502
lthumb 22.8637 -5.38706
rfemur 17.2783 15.7061 40.6387
rtibia -1.59028e-014
rfoot -10.5321 -29.6198
rtoes 18.1336
lfemur -28.2933 -13.305 -15.2934
ltibia 30.7213
lfoot -19.067 19.2507
ltoes -24.9731
2788
root 9.1271 15.2926 27.0859 -2.81787 1.1957 -4.13992
lowerback 6.71224 2.25007 5.17615
upperback -6.43544 3.67729 0.388013
thorax -10.372 1.4086 -3.04543
lowerneck -0.181308 -4.0425 -5.91601
upperneck 1.73405 -5.46832 6.26308
head 0.946932 -2.7303 2.97515
rclavicle -4.29872e-014 -1.61016e-014
rhumerus -34.9326 13.2544 -96.2925
rradius 39.0392
rwrist 13.1834
rhand 5.36626 -46.1662
rfingers 7.12502
rthumb 30.7193 -73.6208
lclavicle -4.29872e-014 -1.61016e-014
lhumerus -48.5032 11.2591 76.1869
lradius 39.4647
lwrist -13.5141
lhand -2.4009 -33.3224
lfingers 7.12502
lthumb 23.2888 -4.71089
rfemur 17.4787 15.6152 40.6581
rtibia 2.22639e-014
rfoot -10.7171 -29.2531
rtoes 18.193
lfemur -28.4903 -14.2496 -15.0144
ltibia 30.081
lfoot -19.4667 20.3196
ltoes -23.332
2789
root 9.13301 15.2952 27.1636 -2.75789 0.733832 -4.14724
lowerback 6.57074 2.30559 5.20612
upperback -6.39163 3.74491 0.4021
thorax -10.2312 1.44556 -3.04738
lowerneck -0.373191 -3.93195 -5.62175
upperneck 1.79435 -5.31276 6.12375
head 0.975014 -2.64835 2.87162
rclavicle -1.21756e-014 1.19271e-014
rhumerus -34.8771 13.1048 -96.2146
rradius 38.5033
rwrist 13.7425
rhand 6.91337 -46.4189
rfingers 7.12502
rthumb 32.1932 -73.5859
lclavicle -1.21756e-014 1.19271e-014
lhumerus -48.0729 11.2173 76.0172
lradius 38.3876
lwrist -13.4237
lhand -2.63641 -33.4901
lfingers 7.12502
lthumb 23.0629 -4.85015
rfemur 17.7654 15.5687 40.6411
rtibia 6.83819e-014
rfoot -10.8423 -28.8946
rtoes 18.07
lfemur -28.5852 -14.978 -14.8422
ltibia 29.5065
lfoot -20.2078 20.9989
ltoes -18.9927
